<svg width="1029" height="356" viewBox="0 0 1029 356" fill="none" xmlns="http://www.w3.org/2000/svg">
<path d="M595.913 278.289C587.628 263.94 592.545 245.592 606.893 237.308L665.322 203.574C679.671 195.29 698.018 200.206 706.303 214.555L740.036 272.984C748.32 287.332 743.404 305.68 729.055 313.964L670.627 347.698C656.278 355.982 637.931 351.066 629.646 336.717L595.913 278.289Z" fill="#F44336"/>
<rect x="-5.85376" y="304.768" width="65.7521" height="65.7521" rx="16" transform="rotate(-30 -5.85376 304.768)" fill="#F44336"/>
<rect x="944.605" y="27.0223" width="65.7521" height="65.7521" rx="16" transform="rotate(-30 944.605 27.0223)" fill="#F44336"/>
<path d="M335.265 87.9587C351.269 92.247 360.767 108.697 356.478 124.701L346.913 160.398C342.625 176.402 326.175 185.9 310.171 181.611L274.474 172.046C258.47 167.758 248.972 151.308 253.261 135.304L262.826 99.6068C267.114 83.6029 283.564 74.1054 299.568 78.3937L335.265 87.9587Z" fill="#F44336"/>
</svg>
