<svg width="377" height="490" viewBox="0 0 377 490" fill="none" xmlns="http://www.w3.org/2000/svg">
<g clip-path="url(#clip0_0_1)">
<path d="M118.518 46.4755C125.579 52.9247 111.456 72.9892 111.456 72.9892C111.456 72.9892 144.998 74.4223 142.35 74.4223C139.702 74.4223 137.497 43.9673 137.497 43.9673C137.497 43.9673 111.456 40.0259 118.518 46.4755Z" fill="#ED9DA0"/>
<path d="M127.985 54.4505C136.466 54.4505 143.341 46.9157 143.341 37.621C143.341 28.3263 136.466 20.7915 127.985 20.7915C119.504 20.7915 112.629 28.3263 112.629 37.621C112.629 46.9157 119.504 54.4505 127.985 54.4505Z" fill="#ED9DA0"/>
<path d="M115.756 20.8958L112.916 19.7635C112.916 19.7635 118.855 13.2544 127.118 13.8201L124.794 11.2728C124.794 11.2728 130.475 9.00998 135.64 14.952C138.355 18.0761 141.496 21.7486 143.454 25.8856H146.496L145.226 28.6685L149.67 31.4514L145.109 30.9513C145.541 33.354 145.392 35.8386 144.677 38.1588L143.644 41.2718C143.644 41.2718 139.513 32.2154 139.513 31.0836V33.9139C139.513 33.9139 136.672 31.3667 136.672 29.6686L135.123 31.6497L134.348 28.5367L124.793 31.6497L126.343 29.1025L120.403 29.9517L122.728 26.8387C122.728 26.8387 116.014 30.5183 115.756 33.6313C115.498 36.7443 112.141 40.7065 112.141 40.7065L110.592 37.8766C110.592 37.8766 108.267 25.1411 115.756 20.8958Z" fill="#090814"/>
<path d="M104.88 128.09L135.281 140.034L151.915 147.577C151.915 147.577 162.813 180.265 167.975 194.724C173.138 209.182 156.504 232.441 156.504 232.441C156.504 232.441 158.224 239.355 156.504 242.499C155.614 244.103 154.847 245.785 154.209 247.528C153.636 248.785 147.327 248.156 140.444 247.528C133.562 246.899 139.871 234.955 139.871 234.955C139.871 234.955 145.607 209.81 146.18 209.182C146.715 208.595 148.252 204.168 146.585 202.564C145.032 201.156 143.757 199.417 142.835 197.453C142.063 195.761 141.064 194.206 139.871 192.839C139.871 192.839 121.693 163.456 112.713 156.774C103.734 150.092 82.8867 158.032 82.8867 158.032C82.8867 158.032 92.8369 174.609 92.8369 178.38C92.8369 182.152 93.4106 184.038 95.1312 185.295C96.8519 186.552 96.2782 189.066 96.2782 191.581C96.2782 194.096 97.9988 199.124 100.867 201.639C103.735 204.154 104.308 206.668 103.735 211.697C103.162 216.726 87.6741 214.211 87.6741 214.211L80.2158 198.496C80.2158 198.496 68.7441 178.38 61.2883 157.005C57.5599 146.319 61.4316 139.09 66.2356 134.532C70.8643 130.229 76.8209 128.033 82.8814 128.394L109.845 129.742L90.5421 123.688L104.88 128.09Z" fill="#090814"/>
<path d="M205.259 72.143L237.954 55.7989C237.954 55.7989 249.425 34.4259 242.542 31.9115C235.659 29.397 229.923 50.7687 229.923 50.7687L206.406 55.7976L205.259 72.143Z" fill="#ED9DA0"/>
<path d="M75.627 83.4582C75.627 83.4582 58.993 99.8023 58.4206 101.688C57.8481 103.574 47.5222 108.603 42.9335 99.8023C38.3448 91.002 53.2574 91.6303 53.2574 91.6303L63.5813 77.1719L75.627 83.4582Z" fill="#ED9DA0"/>
<path d="M58.7938 73.7962L76.5752 88.2546L105.828 76.9402C100.391 95.5965 104.651 115.355 86.7918 126.799L154.475 151.943C148.483 125.51 157.945 103.628 166.054 76.9389C178.899 69.684 195.011 71.3998 212.515 76.9389V51.1658L141.389 55.5659L130.386 62.0502L117.301 58.0804C98.359 54.7154 74.6946 62.0697 58.7938 73.7962Z" fill="#F44336"/>
<path d="M102.586 211.068C104.306 212.325 107.174 224.269 107.748 228.669C108.322 233.07 103.159 234.956 100.291 235.584C97.4234 236.212 97.997 238.099 96.2764 239.984C94.5557 241.87 88.246 242.499 79.6424 240.613C71.0387 238.727 83.6569 226.782 84.8043 226.155C85.9517 225.528 89.393 211.069 89.393 211.069C89.393 211.069 100.863 209.81 102.586 211.068Z" fill="#090814"/>
<path d="M150.194 245.642L154.783 258.843L159.121 265.976C160.303 267.878 161.1 270.034 161.459 272.301C161.818 274.568 161.731 276.893 161.204 279.12C160.476 282.067 158.959 284.852 155.93 285.874C148.473 288.388 143.885 272.673 143.885 272.673C143.885 272.673 139.87 263.872 137.002 255.7C134.134 247.528 139.296 243.128 139.296 243.128L150.194 245.642Z" fill="#090814"/>
<path d="M54.5128 279.726C58.1011 279.121 60.6456 275.534 60.1962 271.714C59.7469 267.893 56.4737 265.286 52.8855 265.89C49.2973 266.495 46.7527 270.082 47.2021 273.902C47.6515 277.723 50.9246 280.33 54.5128 279.726Z" fill="#090814"/>
<path d="M110.752 333.15C114.34 332.546 116.885 328.958 116.435 325.138C115.986 321.317 112.713 318.71 109.125 319.314C105.536 319.919 102.992 323.506 103.441 327.327C103.89 331.147 107.164 333.754 110.752 333.15Z" fill="#090814"/>
<path d="M32.3418 248.17L97.92 316.462C97.92 316.462 112.213 337.62 129.483 327.641C146.754 317.662 116.818 301.496 116.818 301.496L52.6856 232.961C52.6856 232.961 42.9922 213.273 29.0285 220.001C15.0648 226.73 32.3418 248.17 32.3418 248.17Z" fill="#F44336"/>
<path d="M36.1299 266.638C39.7181 266.033 42.2627 262.446 41.8133 258.626C41.3639 254.805 38.0908 252.198 34.5026 252.802C30.9143 253.407 28.3698 256.994 28.8192 260.814C29.2685 264.635 32.5417 267.242 36.1299 266.638Z" fill="#090814"/>
<path d="M92.8637 326.751C96.4519 326.147 98.9964 322.56 98.5471 318.739C98.0977 314.919 94.8246 312.311 91.2363 312.916C87.6481 313.52 85.1035 317.107 85.5529 320.928C86.0023 324.748 89.2754 327.356 92.8637 326.751Z" fill="#090814"/>
<path d="M215.471 344.629C143.973 339.286 129.586 346.014 75.7186 351.357C21.851 356.701 0.000366211 366 0.000366211 366H285.999C285.999 366 286.971 349.97 215.471 344.629Z" fill="#F2F2F2"/>
<path d="M223.049 344.139C223.049 344.139 227.797 343.979 229.228 342.862C230.659 341.746 236.532 340.412 236.887 342.203C237.242 343.994 244.023 351.111 238.662 351.158C233.301 351.206 226.206 350.243 224.778 349.29C223.35 348.336 223.049 344.139 223.049 344.139Z" fill="#E6E6E6"/>
<path d="M48.96 350.83C48.96 350.83 53.1385 350.67 54.3976 349.553C55.6567 348.437 60.8252 347.103 61.1377 348.894C61.4503 350.685 67.4171 357.801 62.6996 357.849C57.9822 357.896 51.7381 356.934 50.4814 355.98C49.2247 355.027 48.96 350.83 48.96 350.83Z" fill="#E6E6E6"/>
<path d="M283.328 310.454C282.969 309.791 281.418 310.501 281.133 309.899C280.847 309.297 282.29 308.387 283.113 306.301C283.262 305.925 284.198 303.555 283.505 302.823C282.192 301.437 276.183 307.158 274.08 305.286C273.619 304.875 273.296 304.055 271.9 302.723C271.344 302.193 271.009 301.954 270.683 302.043C270.221 302.17 270.185 302.847 269.69 304.177C268.948 306.174 268.509 306.052 268.077 307.644C267.756 308.826 267.83 309.513 267.452 309.647C266.918 309.837 266.426 308.582 265.749 308.695C265.057 308.81 264.64 310.27 264.508 311.362C264.26 313.413 264.947 314.766 265.328 316.189C265.742 317.736 265.988 320.088 265.032 323.417L255.57 352.632C257.659 346.637 263.708 330.204 266.249 324.097C266.982 322.334 267.792 320.547 269.455 319.84C271.057 319.161 273.256 319.566 276.06 318.826C276.387 318.74 277.296 318.486 277.411 317.901C277.505 317.417 276.97 317.146 277.053 316.693C277.163 316.084 278.214 316.077 279.506 315.375C280.235 314.964 280.898 314.427 281.472 313.785C281.619 313.632 283.806 311.336 283.328 310.454H283.328Z" fill="#F2F2F2"/>
<path d="M246.106 325.834C245.705 325.834 245.576 326.875 245.224 326.854C244.872 326.834 244.881 325.796 244.184 324.751C244.059 324.562 243.267 323.375 242.74 323.537C241.74 323.843 242.569 328.726 241.123 329.317C240.524 329.424 239.931 329.569 239.346 329.75C238.949 329.896 238.745 330.008 238.691 330.209C238.614 330.493 238.907 330.708 239.36 331.358C240.04 332.334 239.859 332.534 240.448 333.226C240.884 333.74 241.213 333.899 241.164 334.14C241.095 334.482 240.391 334.385 240.246 334.782C240.098 335.186 240.631 335.832 241.083 336.219C241.93 336.944 242.734 336.965 243.481 337.17C244.716 337.549 245.815 338.333 246.633 339.415L256.984 352.934C254.902 350.081 249.288 342.086 247.286 338.957C246.709 338.054 246.141 337.102 246.305 336.004C246.463 334.947 247.28 333.881 247.757 332.159C247.813 331.958 247.961 331.396 247.732 331.166C247.543 330.975 247.267 331.185 247.088 331.009C246.848 330.775 247.147 330.207 247.205 329.31C247.232 328.799 247.183 328.288 247.061 327.794C247.035 327.671 246.637 325.832 246.105 325.834L246.106 325.834Z" fill="#F2F2F2"/>
<path d="M254.088 327.799L253.845 325.44L253.955 325.263C254.425 324.564 254.694 323.728 254.728 322.861C254.728 322.739 254.723 322.618 254.719 322.494C254.659 321.875 254.742 321.25 254.962 320.677C255.123 320.277 255.583 319.359 256.272 319.472C256.435 319.498 256.586 319.579 256.704 319.704L256.753 319.619C256.901 319.365 257.088 319.141 257.306 318.956C257.477 318.807 257.631 318.636 257.765 318.447C257.855 318.325 257.924 318.218 257.983 318.128C258.063 317.961 258.18 317.819 258.324 317.716C258.468 317.612 258.633 317.551 258.804 317.537C258.982 317.567 259.151 317.645 259.294 317.764C259.437 317.884 259.551 318.04 259.625 318.22C259.816 318.546 259.975 318.891 260.102 319.252C260.125 319.322 260.152 319.389 260.183 319.455C260.324 319.683 261.473 319.47 261.906 319.393C262.877 319.215 263.719 319.061 264.066 319.733C264.315 320.214 264.13 320.85 263.499 321.673C263.325 321.899 263.127 322.101 262.91 322.277C262.995 322.33 263.07 322.401 263.129 322.486C263.189 322.571 263.232 322.669 263.256 322.773C263.387 323.345 262.938 323.917 261.923 324.478C261.59 324.678 261.23 324.819 260.857 324.895C260.659 324.93 260.459 324.949 260.259 324.953C260.255 325.075 260.225 325.195 260.171 325.303C259.993 325.662 259.621 325.832 259.062 325.791C258.533 325.751 258.008 325.658 257.494 325.514C257.171 325.412 256.838 325.358 256.503 325.352C256.013 325.396 255.636 325.824 255.193 326.382L254.088 327.798L254.088 327.799Z" fill="#F2F2F2"/>
<path d="M255.207 313.753L253.186 314.607L253 314.535C252.265 314.215 251.459 314.141 250.685 314.325C250.577 314.355 250.471 314.392 250.361 314.429C249.83 314.649 249.257 314.718 248.696 314.631C248.303 314.558 247.375 314.306 247.3 313.547C247.281 313.368 247.314 313.187 247.395 313.03L247.308 312.999C247.047 312.908 246.803 312.768 246.586 312.586C246.411 312.442 246.22 312.322 246.019 312.228C245.889 312.164 245.776 312.117 245.682 312.078C245.515 312.035 245.36 311.947 245.233 311.82C245.105 311.694 245.009 311.535 244.954 311.357C244.935 311.16 244.961 310.962 245.03 310.78C245.099 310.598 245.209 310.437 245.349 310.314C245.587 310.029 245.852 309.772 246.139 309.546C246.194 309.504 246.247 309.459 246.297 309.41C246.462 309.202 245.983 308.038 245.805 307.599C245.4 306.614 245.052 305.76 245.558 305.223C245.919 304.837 246.527 304.872 247.413 305.329C247.656 305.457 247.885 305.616 248.095 305.801C248.12 305.697 248.164 305.6 248.224 305.515C248.284 305.431 248.359 305.36 248.445 305.309C248.916 305.025 249.536 305.353 250.288 306.289C250.549 306.591 250.764 306.937 250.926 307.314C251.007 307.516 251.075 307.723 251.128 307.935C251.237 307.908 251.351 307.91 251.459 307.94C251.821 308.038 252.066 308.388 252.172 308.991C252.271 309.562 252.323 310.143 252.326 310.724C252.318 311.092 252.354 311.459 252.434 311.815C252.596 312.323 253.071 312.614 253.675 312.942L255.205 313.755L255.207 313.753Z" fill="#F2F2F2"/>
<path d="M254.088 306.803L253.845 304.443L253.955 304.266C254.425 303.567 254.694 302.731 254.728 301.865C254.728 301.743 254.723 301.621 254.719 301.497C254.659 300.878 254.742 300.253 254.962 299.68C255.123 299.281 255.583 298.362 256.272 298.476C256.435 298.501 256.586 298.582 256.704 298.707L256.753 298.623C256.901 298.368 257.088 298.143 257.306 297.959C257.477 297.81 257.631 297.639 257.765 297.45C257.855 297.328 257.924 297.221 257.983 297.131C258.063 296.964 258.18 296.822 258.324 296.719C258.468 296.615 258.633 296.554 258.804 296.54C258.982 296.57 259.151 296.648 259.294 296.767C259.437 296.886 259.551 297.043 259.625 297.223C259.816 297.548 259.975 297.894 260.102 298.255C260.125 298.324 260.152 298.392 260.183 298.458C260.324 298.686 261.473 298.473 261.906 298.395C262.877 298.218 263.719 298.064 264.066 298.736C264.315 299.217 264.13 299.852 263.499 300.676C263.325 300.901 263.127 301.104 262.91 301.28C262.995 301.332 263.07 301.403 263.129 301.489C263.189 301.574 263.232 301.671 263.256 301.775C263.387 302.347 262.938 302.92 261.923 303.481C261.59 303.681 261.23 303.822 260.857 303.898C260.659 303.933 260.459 303.952 260.259 303.956C260.255 304.078 260.225 304.198 260.171 304.305C259.993 304.664 259.621 304.835 259.062 304.793C258.533 304.754 258.008 304.661 257.494 304.517C257.171 304.415 256.838 304.361 256.503 304.355C256.013 304.399 255.636 304.827 255.193 305.384L254.088 306.8L254.088 306.803Z" fill="#F2F2F2"/>
<path d="M256.291 352.593L255.84 352.283L255.314 352.349C255.306 352.295 255.277 352.171 255.233 351.98C254.553 348.909 254.035 345.798 253.681 342.662C253.26 339.085 253.025 335.484 252.978 331.877C252.929 328.244 253.086 325.493 253.212 323.282C253.307 321.615 253.423 320.027 253.536 318.48C253.837 314.347 254.122 310.444 253.91 306.122C253.874 304.338 253.458 302.589 252.695 301.012C252.055 299.748 251.19 298.636 250.152 297.743L250.816 296.83C251.964 297.82 252.92 299.051 253.629 300.452C254.471 302.181 254.932 304.102 254.974 306.061C255.189 310.459 254.902 314.4 254.597 318.573C254.485 320.114 254.369 321.695 254.273 323.356C254.148 325.547 253.993 328.274 254.042 331.861C254.088 335.423 254.32 338.98 254.735 342.513C255.084 345.607 255.595 348.676 256.266 351.705C256.39 352.26 256.416 352.376 256.289 352.596L256.291 352.593Z" fill="#F2F2F2"/>
<path d="M248.201 299.595C248.157 299.595 248.113 299.595 248.068 299.59C247.162 299.537 246.323 298.942 245.573 297.823C245.222 297.297 245.042 296.697 244.683 295.5C244.457 294.713 244.293 293.907 244.193 293.09C244.085 292.247 244.099 291.897 244.251 291.586C244.421 291.254 244.684 290.991 245.001 290.835C244.986 290.719 245 290.6 245.041 290.491C245.223 290.003 245.705 290.069 245.966 290.1C246.124 290.126 246.283 290.137 246.443 290.131C246.678 290.115 246.904 290.031 247.1 289.887C247.375 289.707 247.676 289.578 247.99 289.504C248.55 289.387 249.129 289.437 249.665 289.65C250.816 290.07 251.383 291.051 252.04 292.186C252.421 292.871 252.716 293.609 252.917 294.38C253.084 294.843 253.126 295.348 253.039 295.836C252.908 296.392 252.599 296.712 251.813 297.416C251.314 297.899 250.784 298.344 250.228 298.747C249.406 299.267 248.889 299.594 248.204 299.594L248.201 299.595Z" fill="#F2F2F2"/>
</g>
<g clip-path="url(#clip1_0_1)">
<path d="M228.508 333.813L228.337 334.058C228.292 334.122 228.245 334.19 228.195 334.25C225.802 337.547 222.443 339.879 218.643 340.882C218.448 340.937 218.25 340.982 218.052 341.028C217.75 341.098 217.449 341.157 217.145 341.209C217.12 341.212 217.093 341.218 217.065 341.22L217.052 341.222C217.018 341.227 216.982 341.234 216.949 341.239C216.42 341.322 215.886 341.38 215.347 341.413C215.24 341.418 215.129 341.425 215.014 341.427C210.906 341.593 206.843 340.226 203.515 337.56C203.488 337.543 203.462 337.521 203.437 337.501L203.352 337.432C203.327 337.412 203.303 337.392 203.28 337.37C203.195 337.301 203.114 337.23 203.03 337.158C199.777 334.383 197.499 330.502 196.583 326.176C196.556 326.061 196.53 325.943 196.51 325.826C196.419 325.371 196.346 324.911 196.288 324.452C196.282 324.415 196.279 324.376 196.274 324.34L196.272 324.327C196.266 324.297 196.264 324.267 196.26 324.24C196.212 323.845 196.18 323.451 196.157 323.056C196.144 322.839 196.135 322.622 196.131 322.404C196.014 318.245 197.166 314.186 199.411 310.844C199.45 310.778 199.494 310.715 199.54 310.649L199.707 310.409C199.727 310.381 199.747 310.352 199.769 310.326C202.109 307.052 205.398 304.709 209.134 303.656C209.329 303.6 209.525 303.55 209.722 303.503C210.088 303.413 210.458 303.337 210.829 303.271C210.857 303.265 210.882 303.261 210.912 303.257C210.913 303.254 210.918 303.254 210.922 303.253C210.956 303.248 210.992 303.241 211.027 303.238C211.506 303.162 211.987 303.106 212.472 303.07C212.583 303.059 212.694 303.053 212.804 303.049C216.986 302.824 221.137 304.19 224.527 306.908C224.554 306.925 224.58 306.947 224.605 306.967L224.764 307.096C228.043 309.797 230.377 313.609 231.375 317.891C231.401 318.009 231.428 318.124 231.454 318.241C231.587 318.851 231.691 319.469 231.766 320.09C231.771 320.127 231.774 320.166 231.779 320.202L231.78 320.211C231.787 320.241 231.789 320.275 231.793 320.302C231.833 320.65 231.861 321 231.881 321.349C231.897 321.567 231.907 321.782 231.914 322.002C232.044 326.23 230.864 330.357 228.559 333.737C228.543 333.763 228.526 333.789 228.508 333.813Z" fill="#F44336"/>
<path d="M224.856 307.042L224.363 306.642L202.872 337.344L203.365 337.744L224.856 307.042Z" fill="white"/>
<path d="M228.438 333.612L199.771 310.364L199.413 310.874L228.081 334.123L228.438 333.612Z" fill="white"/>
<path d="M208.032 317.063C209.314 315.142 210.146 312.912 210.457 310.558C210.769 308.204 210.552 305.793 209.824 303.525C209.626 303.571 209.429 303.623 209.232 303.678C209.937 305.851 210.152 308.163 209.858 310.422C209.564 312.681 208.771 314.821 207.544 316.666C207.487 316.754 207.427 316.839 207.365 316.927C207.304 317.015 207.244 317.101 207.181 317.185C205.883 318.953 204.207 320.358 202.291 321.286C200.374 322.214 198.27 322.638 196.153 322.523C196.157 322.742 196.166 322.961 196.179 323.179C198.388 323.291 200.58 322.843 202.577 321.87C204.574 320.898 206.319 319.428 207.67 317.581C207.734 317.5 207.796 317.412 207.856 317.326C207.916 317.24 207.978 317.151 208.032 317.063Z" fill="white"/>
<path d="M220.183 327.719C220.241 327.632 220.3 327.546 220.362 327.458C220.424 327.37 220.484 327.284 220.546 327.201C221.877 325.387 223.604 323.955 225.581 323.029C227.557 322.103 229.723 321.709 231.892 321.882C231.885 321.661 231.873 321.444 231.859 321.225C229.6 321.056 227.346 321.475 225.291 322.447C223.236 323.418 221.44 324.913 220.057 326.804C219.993 326.886 219.931 326.974 219.871 327.06C219.811 327.146 219.75 327.233 219.695 327.323C218.399 329.265 217.564 331.523 217.26 333.904C216.956 336.286 217.193 338.722 217.95 341.008C218.15 340.963 218.348 340.916 218.544 340.861C217.809 338.67 217.574 336.331 217.859 334.044C218.145 331.756 218.942 329.586 220.183 327.719Z" fill="white"/>
<path d="M294.125 245.409C301.988 254.284 310.761 255.7 320.444 249.657C316.381 242.65 315.414 235.029 316.497 227.001H297.634C298.47 234.056 298.245 240.625 294.125 245.409Z" fill="#ED9DA0"/>
<path d="M325.267 477.641L335.355 471.977L339.741 412.031V380.406L316.494 379.934L323.073 411.559L325.267 477.641Z" fill="#ED9DA0"/>
<path d="M296.024 477.641L285.936 471.977L281.55 412.031V380.406L304.798 379.934L298.217 411.559L296.024 477.641Z" fill="#ED9DA0"/>
<path d="M280.528 387.015L305.091 384.655L309.038 360.582L313.863 384.182L340.619 382.294C341.203 370.825 339.719 359.021 336.233 346.893L277.458 345.477L280.528 387.015Z" fill="#090814"/>
<path d="M254.998 296.607L225.452 272.123C225.145 271.869 224.808 271.661 224.449 271.504L220.155 269.622C216.705 268.112 210.136 263.089 213.34 257.916C215.923 253.746 225.812 261.216 227.028 263.984C227.413 264.855 228.043 265.573 228.83 266.035L234.834 269.575C234.98 269.661 235.131 269.738 235.285 269.805L258.145 279.776C259.431 280.337 270.104 255.635 271.406 256.237C272.709 256.838 272.745 256.42 273.02 257.915L279.539 266.034C279.946 268.245 273.364 291.431 259.149 297.262C258.463 297.543 257.721 297.631 256.994 297.516C256.267 297.401 255.579 297.087 254.997 296.605L254.998 296.607Z" fill="#ED9DA0"/>
<path d="M286.32 284.329L279.212 247.298C277.305 247.884 275.551 248.94 274.089 250.381C272.626 251.822 271.495 253.61 270.785 255.603L286.32 284.329Z" fill="#F44336"/>
<path d="M275.703 347.835H337.548C327.539 318.809 328.513 288.956 337.036 258.534C337.179 258.029 337.154 257.486 336.965 256.999C336.776 256.511 336.435 256.11 336 255.865L318.249 245.881C311.281 250.76 303.792 249.261 295.879 242.576L276.58 248.24C281.834 282.197 281.983 315.456 275.703 347.835Z" fill="#F44336"/>
<path d="M291.167 488.728L265.394 489.903C264.272 489.955 263.171 489.557 262.305 488.788C261.439 488.018 260.868 486.931 260.702 485.736C260.534 484.528 260.791 483.297 261.423 482.283C262.055 481.269 263.017 480.546 264.118 480.256L268.49 479.103L285.671 468.386C288.217 471.222 291.722 473.619 296.007 475.663L296.057 483.199C296.067 484.623 295.562 485.995 294.65 487.026C293.738 488.058 292.489 488.668 291.167 488.728Z" fill="#090814"/>
<path d="M376.939 489.999H241.2V488.485H377L376.939 489.999Z" fill="#E6E6E6"/>
<path d="M329.91 488.307L355.683 489.482C356.805 489.533 357.905 489.136 358.772 488.366C359.638 487.597 360.209 486.51 360.375 485.314C360.543 484.107 360.286 482.876 359.654 481.862C359.022 480.848 358.06 480.125 356.958 479.834L352.587 478.681L335.405 467.964C332.86 470.8 329.355 473.197 325.07 475.242L325.019 482.777C325.01 484.201 325.514 485.573 326.427 486.605C327.339 487.636 328.588 488.246 329.91 488.307Z" fill="#090814"/>
<path d="M305.089 235.497C312.841 235.497 319.125 228.734 319.125 220.392C319.125 212.05 312.841 205.288 305.089 205.288C297.338 205.288 291.054 212.05 291.054 220.392C291.054 228.734 297.338 235.497 305.089 235.497Z" fill="#ED9DA0"/>
<path d="M320.012 212.073C320.293 210.055 320.175 207.997 319.667 206.031C319.158 204.066 318.271 202.237 317.062 200.666C314.668 197.616 310.654 195.12 303.994 196.297C289.464 198.868 285.275 211.883 286.698 215.157C288.122 218.43 292.485 226.019 292.485 226.019C292.485 226.019 289.283 218.507 292.758 216.978C296.234 215.449 309.684 209.425 314.378 212.139C315.707 212.857 316.836 213.941 317.649 215.281C318.461 216.621 318.93 218.169 319.006 219.767L320.012 212.073Z" fill="#090814"/>
<path d="M327.021 343.116L322.384 352.819C321.975 353.676 321.739 354.615 321.691 355.577C321.643 356.538 321.786 357.5 322.108 358.398C322.43 359.296 322.925 360.111 323.561 360.788C324.197 361.466 324.959 361.991 325.797 362.329C326.683 362.686 327.633 362.826 328.576 362.737C329.519 362.648 330.432 362.332 331.247 361.814C332.062 361.296 332.759 360.587 333.287 359.741C333.814 358.895 334.159 357.933 334.296 356.925L336.231 342.644L343.249 306.771L336.85 257.868L326.851 276.405C331.638 289.747 331.188 321.853 327.021 343.116Z" fill="#ED9DA0"/>
</g>
<defs>
<clipPath id="clip0_0_1">
<rect width="286" height="366" fill="white"/>
</clipPath>
<clipPath id="clip1_0_1">
<rect width="188" height="294" fill="white" transform="translate(189 196)"/>
</clipPath>
</defs>
</svg>
